<?xml version="1.0" standalone="no"?>
<!DOCTYPE svg PUBLIC "-//W3C//DTD SVG 20010904//EN"
 "http://www.w3.org/TR/2001/REC-SVG-20010904/DTD/svg10.dtd">
<svg version="1.0" xmlns="http://www.w3.org/2000/svg"
 width="417.000000pt" height="417.000000pt" viewBox="0 0 417.000000 417.000000"
 preserveAspectRatio="xMidYMid meet">
<metadata>
Created by potrace 1.11, written by Peter Selinger 2001-2013
</metadata>
<g transform="translate(0.000000,417.000000) scale(0.100000,-0.100000)"
fill="#000000" stroke="none">
<path d="M0 2085 l0 -2085 2085 0 2085 0 0 2085 0 2085 -2085 0 -2085 0 0
-2085z m790 1015 l0 -250 25 0 c18 0 25 -5 25 -20 0 -18 -7 -20 -70 -20 -63 0
-70 2 -70 20 0 13 7 20 20 20 19 0 20 7 20 230 0 223 -1 230 -20 230 -13 0
-20 7 -20 20 0 17 7 20 45 20 l45 0 0 -250z m158 168 c30 -30 -1 -73 -36 -51
-23 14 -25 29 -7 47 20 19 27 20 43 4z m-388 -68 l0 -50 50 0 50 0 0 -35 0
-35 -50 0 -50 0 0 -95 c0 -107 10 -122 69 -105 30 8 31 8 31 -25 0 -28 -5 -35
-31 -44 -68 -24 -129 -3 -148 50 -6 18 -11 74 -11 125 l0 94 -30 0 c-28 0 -30
3 -30 35 0 32 2 35 30 35 27 0 30 3 30 33 0 28 6 36 33 50 52 25 57 22 57 -33z
m392 -192 c3 -150 3 -153 26 -156 14 -2 22 -10 22 -23 0 -17 -8 -19 -70 -19
-62 0 -70 2 -70 19 0 13 8 21 23 23 22 3 22 6 22 133 0 127 0 130 -22 133 -15
2 -23 10 -23 23 0 16 7 19 45 19 l44 0 3 -152z m861 140 c14 -11 17 -36 19
-153 3 -137 4 -140 26 -143 14 -2 22 -10 22 -23 0 -19 -7 -19 -142 -17 l-143
3 -3 87 c-3 101 -9 96 118 100 l75 3 3 43 c4 58 -10 72 -68 72 -64 0 -80 -7
-80 -36 0 -17 -6 -24 -20 -24 -16 0 -20 7 -20 38 0 21 5 43 12 50 16 16 179
16 201 0z m357 -8 c18 -18 20 -33 20 -155 0 -128 1 -135 20 -135 13 0 20 -7
20 -20 0 -18 -7 -20 -70 -20 -63 0 -70 2 -70 20 0 15 7 20 25 20 l25 0 0 124
c0 145 -2 148 -87 144 l-58 -3 0 -130 c0 -127 0 -130 23 -133 14 -2 22 -10 22
-23 0 -17 -8 -19 -70 -19 -62 0 -70 2 -70 19 0 13 8 21 23 23 22 3 22 6 22
133 0 127 0 130 -22 133 -15 2 -23 10 -23 23 0 18 8 19 125 19 112 0 127 -2
145 -20z m1250 3 c-1 -10 -45 -79 -99 -153 l-99 -135 65 -3 c79 -4 93 1 93 28
0 13 7 20 20 20 17 0 20 -7 20 -45 l0 -45 -125 0 -125 0 0 25 c0 15 34 70 90
146 50 67 90 126 90 131 0 5 -30 8 -67 6 -62 -3 -68 -5 -71 -25 -2 -15 -10
-23 -23 -23 -16 0 -19 7 -19 45 l0 45 125 0 c113 0 125 -2 125 -17z m284 1
c13 -12 16 -41 16 -155 l0 -139 25 0 c18 0 25 -5 25 -20 0 -19 -7 -20 -140
-20 -161 0 -160 -1 -160 95 0 90 5 95 111 95 l90 0 -3 58 -3 57 -65 0 c-63 0
-65 -1 -68 -27 -3 -23 -8 -28 -29 -28 -24 0 -25 2 -20 41 3 23 11 46 19 50 7
5 52 9 100 9 66 0 90 -4 102 -16z m-2264 -36 c51 -35 72 -82 67 -151 -4 -65
-25 -101 -77 -131 -44 -26 -116 -26 -161 0 -41 23 -79 93 -79 145 0 51 38 118
80 140 50 27 128 25 170 -3z m1060 -8 l0 -30 42 30 c32 23 51 30 89 30 42 0
51 -4 71 -30 21 -30 22 -30 42 -11 32 29 62 41 100 41 81 0 96 -28 96 -185 l0
-115 30 0 c17 0 30 -4 30 -10 0 -6 -30 -10 -70 -10 -40 0 -70 4 -70 10 0 6 11
10 25 10 l25 0 0 120 c0 107 -2 122 -20 140 -34 34 -86 24 -142 -28 -27 -25
-28 -29 -28 -129 l0 -103 30 0 c17 0 30 -4 30 -10 0 -6 -30 -10 -70 -10 -68 0
-98 15 -42 22 l27 3 0 116 c0 101 -3 120 -19 138 -34 37 -103 23 -154 -32 -21
-22 -23 -32 -20 -123 l3 -99 28 -3 c55 -7 25 -22 -43 -22 -40 0 -70 4 -70 10
0 6 14 10 30 10 l31 0 -3 138 -3 137 -27 3 c-43 5 -33 22 12 22 38 0 40 -2 40
-30z m-1392 -232 c18 -18 14 -46 -7 -58 -38 -20 -71 13 -51 51 12 21 40 25 58
7z m1226 6 c20 -8 21 -48 2 -63 -33 -28 -74 27 -44 57 14 14 20 14 42 6z m776
-39 c0 -31 -26 -43 -46 -23 -20 20 -7 48 22 48 19 0 24 -5 24 -25z m-2370
-355 c0 -243 1 -250 20 -250 13 0 20 -7 20 -20 0 -18 -7 -20 -70 -20 -63 0
-70 2 -70 20 0 15 7 20 25 20 l25 0 0 230 0 230 -25 0 c-18 0 -25 5 -25 20 0
17 7 20 50 20 l50 0 0 -250z m155 164 c18 -18 16 -33 -7 -47 -35 -22 -66 21
-36 51 16 16 23 15 43 -4z m-395 -89 l0 -45 50 0 c28 0 50 -4 50 -10 0 -5 -22
-10 -50 -10 l-50 0 0 -129 c0 -146 5 -158 66 -148 43 7 43 -13 0 -24 -38 -10
-74 5 -86 36 -6 15 -10 80 -10 146 l0 119 -25 0 c-14 0 -25 5 -25 10 0 6 11
10 25 10 22 0 25 4 25 38 0 21 3 42 7 45 16 16 23 4 23 -38z m400 -170 c0
-148 1 -155 20 -155 13 0 20 -7 20 -20 0 -18 -7 -20 -65 -20 -58 0 -65 2 -65
20 0 13 7 20 20 20 19 0 20 7 20 135 0 128 -1 135 -20 135 -13 0 -20 7 -20 20
0 17 7 20 45 20 l45 0 0 -155z m876 141 c17 -13 19 -29 22 -155 3 -131 5 -141
23 -141 12 0 19 -7 19 -20 0 -20 -5 -20 -142 -18 l-143 3 -3 78 c-2 50 1 84 9
93 8 10 36 14 100 14 l89 0 0 48 c0 26 -5 53 -12 60 -7 7 -35 12 -63 12 -54 0
-75 -12 -75 -42 0 -11 -7 -18 -20 -18 -16 0 -20 7 -20 38 0 21 5 43 12 50 18
18 179 16 204 -2z m358 -2 c13 -12 16 -41 16 -155 0 -132 1 -139 20 -139 13 0
20 -7 20 -20 0 -18 -7 -20 -65 -20 -58 0 -65 2 -65 20 0 13 7 20 20 20 19 0
20 7 20 129 0 146 3 141 -86 141 l-54 0 0 -135 c0 -128 1 -135 20 -135 13 0
20 -7 20 -20 0 -18 -7 -20 -70 -20 -63 0 -70 2 -70 20 0 15 7 20 25 20 l26 0
-3 133 c-3 128 -4 132 -25 135 -15 2 -23 10 -23 23 0 18 8 19 129 19 104 0
133 -3 145 -16z m1246 -2 c0 -10 -43 -77 -95 -149 -52 -72 -95 -134 -95 -137
0 -3 34 -6 75 -6 73 0 75 1 75 25 0 18 5 25 20 25 17 0 20 -7 20 -45 l0 -45
-125 0 c-123 0 -125 0 -125 23 0 13 41 78 95 152 52 71 95 130 95 132 0 2 -31
3 -70 3 -68 0 -70 -1 -70 -25 0 -20 -5 -25 -25 -25 -23 0 -25 4 -25 45 l0 45
125 0 c114 0 125 -2 125 -18z m283 6 c14 -11 17 -36 19 -153 3 -137 4 -140 26
-143 14 -2 22 -10 22 -23 0 -19 -7 -19 -142 -17 l-143 3 -3 87 c-3 101 -9 96
118 100 l75 3 3 43 c4 58 -10 72 -68 72 -64 0 -80 -7 -80 -36 0 -17 -6 -24
-20 -24 -16 0 -20 7 -20 38 0 21 5 43 12 50 16 16 179 16 201 0z m-2256 -24
c48 -36 66 -70 71 -132 8 -108 -52 -178 -160 -188 -93 -9 -169 45 -189 135
-17 74 17 150 85 193 42 26 153 22 193 -8z m1053 -24 l0 -30 47 30 c65 41 124
42 154 1 l22 -29 40 29 c55 40 126 41 156 3 19 -24 21 -40 21 -150 l0 -124 30
0 c17 0 30 -4 30 -10 0 -6 -30 -10 -70 -10 -68 0 -98 15 -42 22 l27 3 0 116
c0 101 -3 120 -19 138 -34 37 -103 23 -154 -32 -21 -22 -23 -32 -20 -123 l3
-99 28 -3 c55 -7 25 -22 -43 -22 -40 0 -70 4 -70 10 0 6 14 10 30 10 l30 0 0
114 c0 99 -3 117 -21 140 -32 41 -90 34 -146 -17 -21 -19 -23 -29 -23 -129 l0
-108 25 0 c14 0 25 -4 25 -10 0 -6 -30 -10 -70 -10 -40 0 -70 4 -70 10 0 6 14
10 30 10 l30 0 0 140 0 140 -30 0 c-16 0 -30 5 -30 10 0 6 18 10 40 10 38 0
40 -2 40 -30z m-1416 -226 c20 -8 21 -48 2 -63 -33 -28 -74 27 -44 57 14 14
20 14 42 6z m1266 -13 c20 -38 -13 -71 -51 -51 -21 12 -25 40 -7 58 18 18 46
14 58 -7z m760 -26 c0 -31 -26 -43 -46 -23 -20 20 -7 48 22 48 19 0 24 -5 24
-25z m-2330 -355 c0 -243 1 -250 20 -250 13 0 20 -7 20 -20 0 -18 -7 -20 -70
-20 -63 0 -70 2 -70 20 0 15 7 20 25 20 l25 0 0 230 0 230 -25 0 c-18 0 -25 5
-25 20 0 17 7 20 50 20 l50 0 0 -250z m164 155 c9 -25 -5 -45 -30 -45 -26 0
-40 20 -30 45 3 8 16 15 30 15 13 0 26 -7 30 -15z m-404 -80 l0 -45 50 0 c38
0 50 -4 50 -15 0 -11 -12 -15 -50 -15 l-50 0 0 -122 c0 -68 4 -128 8 -134 12
-18 41 -24 67 -14 19 7 25 6 25 -5 0 -18 -67 -32 -89 -18 -32 20 -41 57 -41
176 l0 117 -25 0 c-16 0 -25 6 -25 15 0 9 9 15 25 15 22 0 25 4 25 38 0 21 3
42 7 45 16 16 23 4 23 -38z m400 -170 c0 -148 1 -155 20 -155 13 0 20 -7 20
-20 0 -18 -7 -20 -65 -20 -58 0 -65 2 -65 20 0 13 7 20 20 20 19 0 20 7 20
130 0 123 -1 130 -20 130 -15 0 -20 7 -20 25 0 23 4 25 45 25 l45 0 0 -155z
m866 131 c10 -15 14 -54 14 -153 0 -126 1 -133 20 -133 13 0 20 -7 20 -20 0
-19 -7 -20 -139 -20 -160 0 -151 -6 -151 100 0 85 7 90 119 90 l81 0 0 55 0
55 -70 0 c-68 0 -70 -1 -70 -25 0 -20 -5 -25 -25 -25 -22 0 -25 4 -25 33 0 60
15 67 128 64 70 -2 86 -5 98 -21z m338 14 l26 -10 0 -145 0 -145 25 0 c18 0
25 -5 25 -20 0 -18 -7 -20 -70 -20 -63 0 -70 2 -70 20 0 15 7 20 25 20 l25 0
0 114 c0 63 -3 121 -6 130 -5 12 -21 16 -75 16 l-69 0 0 -130 0 -130 25 0 c18
0 25 -5 25 -20 0 -18 -7 -20 -70 -20 -63 0 -70 2 -70 20 0 13 7 20 20 20 19 0
20 7 20 130 0 123 -1 130 -20 130 -15 0 -20 7 -20 25 l0 25 114 0 c63 0 126
-4 140 -10z m1276 -9 c0 -10 -43 -78 -95 -150 -52 -72 -95 -133 -95 -136 0 -3
34 -5 75 -5 73 0 75 1 75 25 0 18 5 25 20 25 17 0 20 -7 20 -45 l0 -45 -125 0
c-121 0 -125 1 -125 21 0 12 43 79 95 150 l95 129 -69 0 c-65 0 -70 -2 -73
-22 -2 -15 -11 -24 -25 -26 -21 -3 -23 0 -23 47 l0 51 125 0 c116 0 125 -1
125 -19z m283 0 c14 -11 17 -35 17 -152 l0 -139 25 0 c18 0 25 -5 25 -20 0
-20 -5 -20 -142 -18 l-143 3 -3 78 c-2 50 1 84 9 93 8 10 36 14 101 14 l89 0
-3 53 -3 52 -70 0 c-65 0 -70 -2 -73 -22 -2 -15 -10 -23 -23 -23 -16 0 -19 7
-19 40 0 33 4 43 23 50 32 14 171 8 190 -9z m-996 -15 l29 -24 39 24 c62 37
134 29 165 -19 9 -14 16 -60 18 -129 4 -106 5 -108 28 -108 20 0 24 -5 24 -30
l0 -30 -90 0 -90 0 0 30 c0 23 4 30 20 30 19 0 20 7 20 95 0 91 -1 96 -24 107
-20 9 -32 7 -63 -9 l-38 -20 0 -84 c0 -79 1 -84 23 -87 17 -3 22 -10 22 -33
l0 -29 -85 0 -85 0 0 30 c0 23 4 30 20 30 19 0 20 7 20 89 0 70 -4 93 -16 106
-19 18 -53 14 -92 -11 -21 -14 -23 -21 -20 -97 3 -76 5 -82 26 -85 17 -3 22
-10 22 -33 l0 -29 -90 0 -90 0 0 29 c0 23 5 30 23 33 21 3 22 7 22 103 0 96
-1 100 -22 103 -18 3 -23 10 -23 33 l0 29 65 0 c59 0 65 -2 65 -20 0 -20 1
-20 37 5 49 33 102 33 140 1z m-1279 -23 c44 -33 66 -81 66 -139 -1 -69 -28
-113 -84 -141 -56 -29 -96 -29 -150 0 -60 31 -82 75 -78 152 4 70 29 113 80
139 44 22 129 17 166 -11z m-340 -235 c19 -19 14 -56 -8 -63 -41 -13 -69 43
-32 64 22 13 26 13 40 -1z m1233 2 c21 -12 25 -40 7 -58 -18 -18 -46 -14 -58
7 -13 25 -13 27 6 45 18 19 20 19 45 6z m787 -38 c4 -28 -24 -40 -45 -19 -14
13 -14 19 -3 32 18 22 44 15 48 -13z"/>
<path d="M1637 2953 c-10 -9 -8 -75 2 -91 5 -9 28 -12 77 -10 l69 3 3 53 3 52
-74 0 c-40 0 -77 -3 -80 -7z"/>
<path d="M3524 2946 c-3 -8 -4 -31 -2 -52 l3 -39 73 -3 72 -3 0 56 0 55 -70 0
c-51 0 -72 -4 -76 -14z"/>
<path d="M1283 3091 c-47 -30 -66 -73 -61 -139 4 -48 10 -60 41 -89 31 -28 44
-33 85 -33 95 0 158 84 133 178 -24 86 -126 129 -198 83z"/>
<path d="M1600 2285 l0 -55 75 0 75 0 0 55 0 55 -75 0 -75 0 0 -55z"/>
<path d="M3487 2333 c-10 -9 -8 -75 2 -91 5 -9 28 -12 77 -10 l69 3 3 53 3 52
-74 0 c-40 0 -77 -3 -80 -7z"/>
<path d="M1274 2460 c-12 -4 -31 -21 -44 -37 -31 -40 -24 -117 14 -150 74 -63
171 7 152 110 -11 58 -73 98 -122 77z"/>
<path d="M1587 1713 c-4 -3 -7 -28 -7 -55 l0 -48 75 0 75 0 0 55 0 55 -68 0
c-38 0 -72 -3 -75 -7z"/>
<path d="M3484 1696 c-3 -13 -4 -37 -2 -52 3 -29 3 -29 81 -32 l77 -3 0 56 0
55 -75 0 c-70 0 -75 -1 -81 -24z"/>
<path d="M1241 1853 c-47 -24 -72 -62 -78 -114 -8 -84 51 -152 131 -152 85 0
140 62 133 151 -3 45 -9 59 -39 88 -43 44 -97 54 -147 27z"/>
</g>
</svg>
